<?xml version="1.0" standalone="no"?>
<!DOCTYPE svg PUBLIC "-//W3C//DTD SVG 20010904//EN"
 "http://www.w3.org/TR/2001/REC-SVG-20010904/DTD/svg10.dtd">
<svg version="1.0" xmlns="http://www.w3.org/2000/svg"
 width="512.000000pt" height="512.000000pt" viewBox="0 0 512.000000 512.000000"
 preserveAspectRatio="xMidYMid meet">
<metadata>
Created by potrace 1.11, written by Peter Selinger 2001-2013
</metadata>
<g transform="translate(0.000000,512.000000) scale(0.100000,-0.100000)"
fill="#000000" stroke="none">
<path d="M2379 5116 c-2 -2 -40 -6 -83 -10 -44 -4 -82 -8 -85 -10 -3 -2 -31
-7 -61 -11 -30 -3 -75 -11 -100 -17 -25 -5 -56 -12 -70 -14 -14 -3 -72 -18
-129 -35 -427 -123 -783 -335 -1120 -669 -337 -334 -592 -816 -685 -1295 -57
-291 -59 -656 -6 -955 158 -899 824 -1670 1693 -1964 278 -94 516 -133 826
-134 210 0 315 9 496 44 911 178 1659 848 1945 1742 30 93 53 181 65 251 3 19
8 37 10 40 3 6 11 53 20 123 27 208 27 560 1 713 -3 17 -8 44 -10 60 -3 17 -9
53 -15 80 -6 28 -13 61 -15 75 -31 156 -115 389 -206 572 -335 671 -954 1167
-1680 1344 -58 14 -116 28 -130 30 -70 11 -85 14 -195 30 -44 6 -460 15 -466
10z"/>
</g>
</svg>
